<svg width="24" height="24" viewBox="0 0 24 24" fill="none" xmlns="http://www.w3.org/2000/svg">
<g clip-path="url(#clip0)">
<path d="M17.4275 12.995C17.3225 12.695 17.0375 12.5 16.7 12.5H11.3075C10.9625 12.5 10.685 12.695 10.5725 12.995L9.5 16.0775L9.5075 20.21C9.5075 20.495 9.74 20.75 10.025 20.75H10.49C10.775 20.75 11 20.465 11 20.18V19.25H17V20.18C17 20.465 17.2325 20.75 17.5175 20.75H17.975C18.26 20.75 18.4925 20.495 18.4925 20.21L18.5 19.1825V16.0775L17.4275 12.995ZM11.3075 13.25H16.7L17.4725 15.5H10.535L11.3075 13.25ZM11 17.75C10.5875 17.75 10.25 17.4125 10.25 17C10.25 16.5875 10.5875 16.25 11 16.25C11.4125 16.25 11.75 16.5875 11.75 17C11.75 17.4125 11.4125 17.75 11 17.75ZM17 17.75C16.5875 17.75 16.25 17.4125 16.25 17C16.25 16.5875 16.5875 16.25 17 16.25C17.4125 16.25 17.75 16.5875 17.75 17C17.75 17.4125 17.4125 17.75 17 17.75Z" fill="#00107D"/>
<path d="M12.5 11.75H13.25V7.25H7.25V11H3.5V20.75H4.25V11.75H8V8H12.5V11.75Z" fill="#00107D"/>
<path d="M7.25 13.25H5.75V14.75H7.25V13.25Z" fill="#00107D"/>
<path d="M11 8.75H9.5V10.25H11V8.75Z" fill="#00107D"/>
<path d="M7.25 16.25H5.75V17.75H7.25V16.25Z" fill="#00107D"/>
<path d="M7.25 19.25H5.75V20.75H7.25V19.25Z" fill="#00107D"/>
</g>
<defs>
<clipPath id="clip0">
<rect width="24" height="24" fill="white"/>
</clipPath>
</defs>
</svg>
