<svg width="34" height="34" viewBox="0 0 34 34" fill="none" xmlns="http://www.w3.org/2000/svg">
<path d="M0.0808105 34L2.47073 25.2691C0.995977 22.7134 0.221061 19.8163 0.222477 16.8456C0.226727 7.55792 7.78464 0 17.0709 0C21.5773 0.00141667 25.8075 1.75667 28.9893 4.94133C32.1697 8.126 33.9207 12.359 33.9193 16.8612C33.9151 26.1502 26.3571 33.7082 17.0709 33.7082C14.2517 33.7067 11.4736 32.9998 9.01289 31.6568L0.0808105 34ZM9.42656 28.6068C11.8009 30.0163 14.0676 30.8607 17.0652 30.8621C24.7832 30.8621 31.0704 24.5806 31.0746 16.8583C31.0775 9.1205 24.8201 2.8475 17.0766 2.84467C9.35289 2.84467 3.06998 9.12617 3.06714 16.847C3.06573 19.9991 3.98939 22.3592 5.54064 24.8285L4.12539 29.9965L9.42656 28.6068ZM25.5581 20.8661C25.4533 20.6904 25.1728 20.5856 24.7506 20.3745C24.3299 20.1634 22.2601 19.1448 21.8734 19.0046C21.4881 18.8643 21.2076 18.7935 20.9256 19.2157C20.6451 19.6364 19.8376 20.5856 19.5926 20.8661C19.3475 21.1466 19.101 21.182 18.6802 20.9709C18.2595 20.7598 16.9023 20.3164 15.2944 18.8813C14.0435 17.765 13.1977 16.3866 12.9526 15.9644C12.7076 15.5437 12.9271 15.3156 13.1368 15.1059C13.3266 14.9175 13.5576 14.6143 13.7686 14.3678C13.9826 14.1242 14.052 13.9485 14.1936 13.6666C14.3339 13.3861 14.2645 13.1396 14.1582 12.9285C14.052 12.7188 13.2105 10.6462 12.8606 9.80333C12.5177 8.98308 12.1706 9.09358 11.9128 9.08083L11.1053 9.06667C10.8248 9.06667 10.3686 9.1715 9.98331 9.59367C9.59798 10.0158 8.50998 11.033 8.50998 13.1056C8.50998 15.1782 10.0187 17.1799 10.2284 17.4604C10.4395 17.7409 13.1963 21.9937 17.4194 23.817C18.4238 24.2505 19.2086 24.5097 19.8192 24.7038C20.8279 25.024 21.7459 24.9787 22.4712 24.871C23.2801 24.7506 24.9617 23.8524 25.3131 22.8692C25.6644 21.8847 25.6644 21.0417 25.5581 20.8661Z" fill="#FFCD00"/>
</svg>
